<svg width="140" height="40" viewBox="0 0 140 40" fill="none" xmlns="http://www.w3.org/2000/svg">
<path d="M51.462 26.1415C49.734 26.1415 48.384 25.7215 47.412 24.8815C46.44 24.0295 45.924 22.8235 45.864 21.2635C45.852 20.9155 45.846 20.3635 45.846 19.6075C45.846 18.8515 45.852 18.2995 45.864 17.9515C45.924 16.4275 46.446 15.2515 47.43 14.4235C48.426 13.5955 49.77 13.1815 51.462 13.1815C52.602 13.1815 53.592 13.3675 54.432 13.7395C55.284 14.1115 55.932 14.5855 56.376 15.1615C56.832 15.7375 57.072 16.3315 57.096 16.9435C57.096 17.0515 57.054 17.1415 56.97 17.2135C56.898 17.2855 56.808 17.3215 56.7 17.3215H54.072C53.952 17.3215 53.856 17.3035 53.784 17.2675C53.712 17.2315 53.652 17.1655 53.604 17.0695C53.448 16.7215 53.202 16.4215 52.866 16.1695C52.53 15.9055 52.062 15.7735 51.462 15.7735C50.034 15.7735 49.284 16.5295 49.212 18.0415C49.2 18.3775 49.194 18.8995 49.194 19.6075C49.194 20.3035 49.2 20.8255 49.212 21.1735C49.284 22.7575 50.052 23.5495 51.516 23.5495C52.224 23.5495 52.788 23.3695 53.208 23.0095C53.64 22.6375 53.856 22.0735 53.856 21.3175V20.9755H52.164C52.032 20.9755 51.924 20.9335 51.84 20.8495C51.756 20.7535 51.714 20.6395 51.714 20.5075V19.1755C51.714 19.0435 51.756 18.9355 51.84 18.8515C51.924 18.7555 52.032 18.7075 52.164 18.7075H56.7C56.832 18.7075 56.94 18.7555 57.024 18.8515C57.108 18.9355 57.15 19.0435 57.15 19.1755V21.2275C57.15 22.2475 56.916 23.1295 56.448 23.8735C55.98 24.6055 55.314 25.1695 54.45 25.5655C53.598 25.9495 52.602 26.1415 51.462 26.1415ZM63.4451 26.1415C61.9571 26.1415 60.8111 25.7875 60.0071 25.0795C59.2031 24.3715 58.7651 23.3755 58.6931 22.0915C58.6811 21.9355 58.6751 21.6655 58.6751 21.2815C58.6751 20.8975 58.6811 20.6275 58.6931 20.4715C58.7651 19.1995 59.2151 18.2095 60.0431 17.5015C60.8711 16.7815 62.0051 16.4215 63.4451 16.4215C64.8971 16.4215 66.0371 16.7815 66.8651 17.5015C67.6931 18.2095 68.1431 19.1995 68.2151 20.4715C68.2271 20.6275 68.2331 20.8975 68.2331 21.2815C68.2331 21.6655 68.2271 21.9355 68.2151 22.0915C68.1431 23.3755 67.7051 24.3715 66.9011 25.0795C66.0971 25.7875 64.9451 26.1415 63.4451 26.1415ZM63.4451 23.9455C63.9731 23.9455 64.3631 23.7895 64.6151 23.4775C64.8671 23.1535 65.0111 22.6615 65.0471 22.0015C65.0591 21.8815 65.0651 21.6415 65.0651 21.2815C65.0651 20.9215 65.0591 20.6815 65.0471 20.5615C65.0111 19.9135 64.8611 19.4275 64.5971 19.1035C64.3451 18.7795 63.9611 18.6175 63.4451 18.6175C62.4491 18.6175 61.9211 19.2655 61.8611 20.5615L61.8431 21.2815L61.8611 22.0015C61.8851 22.6615 62.0231 23.1535 62.2751 23.4775C62.5391 23.7895 62.9291 23.9455 63.4451 23.9455Z" fill="black"/>
<path d="M75.385 26.1415C73.669 26.1415 72.325 25.7275 71.353 24.8995C70.393 24.0595 69.883 22.8475 69.823 21.2635C69.811 20.9395 69.805 20.4115 69.805 19.6795C69.805 18.9355 69.811 18.3955 69.823 18.0595C69.883 16.4995 70.405 15.2995 71.389 14.4595C72.373 13.6075 73.705 13.1815 75.385 13.1815C76.441 13.1815 77.389 13.3615 78.229 13.7215C79.069 14.0695 79.729 14.5735 80.209 15.2335C80.701 15.8815 80.953 16.6435 80.965 17.5195V17.5555C80.965 17.6515 80.923 17.7355 80.839 17.8075C80.767 17.8675 80.683 17.8975 80.587 17.8975H78.157C78.001 17.8975 77.881 17.8675 77.797 17.8075C77.713 17.7355 77.641 17.6095 77.581 17.4295C77.413 16.8175 77.149 16.3915 76.789 16.1515C76.429 15.8995 75.955 15.7735 75.367 15.7735C73.951 15.7735 73.219 16.5655 73.171 18.1495C73.159 18.4735 73.153 18.9715 73.153 19.6435C73.153 20.3155 73.159 20.8255 73.171 21.1735C73.219 22.7575 73.951 23.5495 75.367 23.5495C75.955 23.5495 76.435 23.4235 76.807 23.1715C77.179 22.9075 77.437 22.4815 77.581 21.8935C77.629 21.7135 77.695 21.5935 77.779 21.5335C77.863 21.4615 77.989 21.4255 78.157 21.4255H80.587C80.695 21.4255 80.785 21.4615 80.857 21.5335C80.941 21.6055 80.977 21.6955 80.965 21.8035C80.953 22.6795 80.701 23.4475 80.209 24.1075C79.729 24.7555 79.069 25.2595 78.229 25.6195C77.389 25.9675 76.441 26.1415 75.385 26.1415ZM87.0877 26.1415C85.5997 26.1415 84.4537 25.7875 83.6497 25.0795C82.8457 24.3715 82.4077 23.3755 82.3357 22.0915C82.3237 21.9355 82.3177 21.6655 82.3177 21.2815C82.3177 20.8975 82.3237 20.6275 82.3357 20.4715C82.4077 19.1995 82.8577 18.2095 83.6857 17.5015C84.5137 16.7815 85.6477 16.4215 87.0877 16.4215C88.5397 16.4215 89.6797 16.7815 90.5077 17.5015C91.3357 18.2095 91.7857 19.1995 91.8577 20.4715C91.8697 20.6275 91.8757 20.8975 91.8757 21.2815C91.8757 21.6655 91.8697 21.9355 91.8577 22.0915C91.7857 23.3755 91.3477 24.3715 90.5437 25.0795C89.7397 25.7875 88.5877 26.1415 87.0877 26.1415ZM87.0877 23.9455C87.6157 23.9455 88.0057 23.7895 88.2577 23.4775C88.5097 23.1535 88.6537 22.6615 88.6897 22.0015C88.7017 21.8815 88.7077 21.6415 88.7077 21.2815C88.7077 20.9215 88.7017 20.6815 88.6897 20.5615C88.6537 19.9135 88.5037 19.4275 88.2397 19.1035C87.9877 18.7795 87.6037 18.6175 87.0877 18.6175C86.0917 18.6175 85.5637 19.2655 85.5037 20.5615L85.4857 21.2815L85.5037 22.0015C85.5277 22.6615 85.6657 23.1535 85.9177 23.4775C86.1817 23.7895 86.5717 23.9455 87.0877 23.9455ZM94.1136 25.9615C93.9816 25.9615 93.8736 25.9195 93.7896 25.8355C93.7056 25.7515 93.6636 25.6435 93.6636 25.5115V17.0515C93.6636 16.9195 93.7056 16.8115 93.7896 16.7275C93.8736 16.6435 93.9816 16.6015 94.1136 16.6015H96.1836C96.3156 16.6015 96.4236 16.6495 96.5076 16.7455C96.6036 16.8295 96.6516 16.9315 96.6516 17.0515V17.7715C97.3116 16.9915 98.1996 16.6015 99.3156 16.6015H100.108C100.24 16.6015 100.348 16.6435 100.432 16.7275C100.516 16.8115 100.558 16.9195 100.558 17.0515V18.9055C100.558 19.0255 100.516 19.1335 100.432 19.2295C100.348 19.3135 100.24 19.3555 100.108 19.3555H98.3616C97.8696 19.3555 97.4856 19.4935 97.2096 19.7695C96.9456 20.0335 96.8136 20.4115 96.8136 20.9035V25.5115C96.8136 25.6435 96.7656 25.7515 96.6696 25.8355C96.5856 25.9195 96.4776 25.9615 96.3456 25.9615H94.1136ZM106.178 26.1415C104.69 26.1415 103.544 25.7875 102.74 25.0795C101.936 24.3715 101.498 23.3755 101.426 22.0915C101.414 21.9355 101.408 21.6655 101.408 21.2815C101.408 20.8975 101.414 20.6275 101.426 20.4715C101.498 19.1995 101.948 18.2095 102.776 17.5015C103.604 16.7815 104.738 16.4215 106.178 16.4215C107.63 16.4215 108.77 16.7815 109.598 17.5015C110.426 18.2095 110.876 19.1995 110.948 20.4715C110.96 20.6275 110.966 20.8975 110.966 21.2815C110.966 21.6655 110.96 21.9355 110.948 22.0915C110.876 23.3755 110.438 24.3715 109.634 25.0795C108.83 25.7875 107.678 26.1415 106.178 26.1415ZM106.178 23.9455C106.706 23.9455 107.096 23.7895 107.348 23.4775C107.6 23.1535 107.744 22.6615 107.78 22.0015C107.792 21.8815 107.798 21.6415 107.798 21.2815C107.798 20.9215 107.792 20.6815 107.78 20.5615C107.744 19.9135 107.594 19.4275 107.33 19.1035C107.078 18.7795 106.694 18.6175 106.178 18.6175C105.182 18.6175 104.654 19.2655 104.594 20.5615L104.576 21.2815L104.594 22.0015C104.618 22.6615 104.756 23.1535 105.008 23.4775C105.272 23.7895 105.662 23.9455 106.178 23.9455ZM113.203 25.9615C113.071 25.9615 112.963 25.9195 112.879 25.8355C112.795 25.7515 112.753 25.6435 112.753 25.5115V17.0515C112.753 16.9195 112.795 16.8115 112.879 16.7275C112.963 16.6435 113.071 16.6015 113.203 16.6015H115.273C115.405 16.6015 115.513 16.6435 115.597 16.7275C115.693 16.8115 115.741 16.9195 115.741 17.0515V17.7355C116.065 17.3395 116.479 17.0215 116.983 16.7815C117.499 16.5415 118.081 16.4215 118.729 16.4215C119.785 16.4215 120.643 16.7815 121.303 17.5015C121.963 18.2095 122.293 19.2055 122.293 20.4895V25.5115C122.293 25.6315 122.251 25.7395 122.167 25.8355C122.083 25.9195 121.975 25.9615 121.843 25.9615H119.575C119.455 25.9615 119.347 25.9195 119.251 25.8355C119.167 25.7395 119.125 25.6315 119.125 25.5115V20.5975C119.125 20.0335 118.987 19.6015 118.711 19.3015C118.435 18.9895 118.039 18.8335 117.523 18.8335C117.019 18.8335 116.623 18.9895 116.335 19.3015C116.047 19.6015 115.903 20.0335 115.903 20.5975V25.5115C115.903 25.6315 115.861 25.7395 115.777 25.8355C115.693 25.9195 115.585 25.9615 115.453 25.9615H113.203ZM127.128 26.1415C126.492 26.1415 125.91 26.0215 125.382 25.7815C124.866 25.5295 124.458 25.1935 124.158 24.7735C123.87 24.3415 123.726 23.8675 123.726 23.3515C123.726 22.5235 124.062 21.8575 124.734 21.3535C125.418 20.8495 126.354 20.5015 127.542 20.3095L129.792 19.9675V19.7155C129.792 19.2595 129.696 18.9235 129.504 18.7075C129.312 18.4915 128.988 18.3835 128.532 18.3835C128.256 18.3835 128.028 18.4315 127.848 18.5275C127.668 18.6235 127.482 18.7555 127.29 18.9235C127.122 19.0675 126.996 19.1635 126.912 19.2115C126.876 19.3075 126.81 19.3555 126.714 19.3555H124.752C124.632 19.3555 124.53 19.3195 124.446 19.2475C124.374 19.1635 124.344 19.0675 124.356 18.9595C124.368 18.6355 124.524 18.2755 124.824 17.8795C125.136 17.4835 125.604 17.1415 126.228 16.8535C126.864 16.5655 127.644 16.4215 128.568 16.4215C130.044 16.4215 131.136 16.7515 131.844 17.4115C132.552 18.0595 132.906 18.9355 132.906 20.0395V25.5115C132.906 25.6315 132.864 25.7395 132.78 25.8355C132.696 25.9195 132.588 25.9615 132.456 25.9615H130.368C130.248 25.9615 130.14 25.9195 130.044 25.8355C129.96 25.7395 129.918 25.6315 129.918 25.5115V24.8815C129.654 25.2535 129.282 25.5595 128.802 25.7995C128.334 26.0275 127.776 26.1415 127.128 26.1415ZM127.974 24.0895C128.526 24.0895 128.97 23.9095 129.306 23.5495C129.654 23.1895 129.828 22.6615 129.828 21.9655V21.7135L128.298 21.9835C127.218 22.1755 126.678 22.5535 126.678 23.1175C126.678 23.4175 126.804 23.6575 127.056 23.8375C127.308 24.0055 127.614 24.0895 127.974 24.0895Z" fill="#EC5863"/>
<path d="M14.3282 4.97958C15.7545 4.48081 17.3228 5.15576 17.8305 6.48647C18.219 7.50528 17.8727 8.61225 17.0502 9.29957L17.4957 10.5113L18.2037 11.3273C18.3653 11.5141 18.6103 11.6035 18.8558 11.5735C19.5177 11.4926 20.1755 11.49 20.8198 11.558C21.0381 11.5813 21.2552 11.5094 21.4118 11.3574L21.922 10.8641L22.2977 9.76972C21.9771 9.33044 21.8683 8.74886 22.0578 8.19647C22.3794 7.26006 23.4315 6.77666 24.3677 7.16082C25.1742 7.49135 25.6135 8.38761 25.378 9.22121C25.2284 9.75218 24.8491 10.1497 24.3821 10.3462L23.9662 11.5591L24.0616 12.2275C24.0944 12.4573 24.2312 12.6581 24.4308 12.7786C25.1019 13.1857 25.7184 13.6833 26.2597 14.2584C26.4415 14.4519 26.7128 14.535 26.9734 14.4828L28.3148 14.2146L29.8299 13.3758C29.8372 12.6313 30.2351 11.9117 30.936 11.5236C31.9957 10.9373 33.3386 11.3327 33.9042 12.4088C34.4148 13.3796 34.0955 14.5993 33.1722 15.1962C32.4512 15.6614 31.5712 15.6438 30.8916 15.2457L29.3675 16.0889L28.5167 16.9917C28.2884 17.234 28.2072 17.5767 28.2946 17.8977C28.2951 17.8996 28.2955 17.9008 28.296 17.9027C28.4455 18.4559 28.5364 19.0117 28.5742 19.5627C28.5962 19.8909 28.7824 20.1863 29.0736 20.3433L30.1852 20.9425L32.3879 21.3588C32.7759 21.0213 33.3106 20.8583 33.8572 20.9611C34.8372 21.1466 35.4687 22.1158 35.2183 23.0909C35.0029 23.926 34.1796 24.4814 33.3181 24.3714C32.7307 24.2964 32.2562 23.9434 32.0012 23.4691L29.7843 23.0504L28.4171 23.2157C28.1651 23.2468 27.9451 23.4041 27.8425 23.6346C27.434 24.5447 26.8701 25.3815 26.1737 26.1037C26.0006 26.2832 25.9358 26.5403 25.9988 26.781L26.3395 28.0917L27.1792 29.4026C28.1019 29.2652 29.0624 29.6633 29.5956 30.496C30.3124 31.6146 29.9886 33.095 28.8745 33.8157C27.7611 34.5363 26.2451 34.2215 25.5142 33.1167C25.0025 32.3434 24.9963 31.3897 25.4102 30.6334L24.5187 29.242L23.4231 28.3439C23.2608 28.2102 23.0399 28.1747 22.8421 28.2448C22.6225 28.3228 22.3986 28.3924 22.1697 28.4532C20.9255 28.7837 19.6709 28.8256 18.4775 28.6222C18.3025 28.5928 18.1237 28.6423 17.9899 28.7578L17.4026 29.2661L16.9663 30.338C17.2623 30.7947 17.3382 31.3809 17.1183 31.9217C16.7447 32.8395 15.6671 33.2639 14.7539 32.8289C13.9676 32.4544 13.5787 31.5353 13.8603 30.7158C14.0396 30.1939 14.4398 29.818 14.9173 29.6478L15.4006 28.4597L15.31 27.416C14.4366 26.8708 13.6593 26.1714 13.0234 25.345L11.5304 25.4909L10.1332 26.1784C10.143 27.1121 9.66111 28.0003 8.81462 28.4298C7.61849 29.0361 6.14837 28.4977 5.53139 27.2265C4.91458 25.956 5.38337 24.4344 6.5795 23.828C7.47461 23.3741 8.52255 23.5613 9.25203 24.2172L10.5696 23.5684L11.4837 22.5918C11.5434 22.5279 11.5655 22.438 11.5427 22.3539L11.5424 22.3526C11.1186 20.7849 11.1607 19.2004 11.5838 17.7445C11.6066 17.6646 11.5894 17.5783 11.5354 17.5148L10.7456 16.5754L9.04489 15.6856C8.57673 15.8906 8.02157 15.8897 7.53317 15.6339C6.65085 15.1717 6.33229 14.0638 6.85747 13.2048C7.31853 12.4515 8.30144 12.166 9.1 12.5529C9.6169 12.8032 9.95055 13.2708 10.0494 13.7879L11.7502 14.6777L12.9604 14.7919C13.0445 14.8001 13.1263 14.7648 13.1796 14.6999C13.728 14.025 14.381 13.4295 15.1229 12.9411C15.3265 12.8064 15.4529 12.5831 15.456 12.3397L15.4677 11.2457L14.9926 9.9545C13.9642 9.88007 13.0335 9.25932 12.6643 8.29162C12.1566 6.96091 12.9017 5.47772 14.3282 4.97958Z" fill="#EC5863"/>
<path d="M26.1219 18.4799C25.2016 15.0752 21.6784 13.0527 18.2527 13.9626C14.827 14.8725 12.796 18.3702 13.7163 21.775C14.6367 25.1798 18.1598 27.2023 21.5856 26.2924C25.0113 25.3824 27.0423 21.8847 26.1219 18.4799Z" fill="#F58A97"/>
<path d="M21.0758 24.4117C17.9703 25.2371 14.7856 23.6547 13.531 20.817C13.5666 21.1359 13.6269 21.4561 13.7132 21.7755C14.6328 25.1801 18.1563 27.2015 21.5833 26.2906C25.0104 25.3797 27.0429 21.8815 26.1232 18.477C26.037 18.1576 25.9278 17.8503 25.7979 17.5565C26.1416 20.6362 24.1812 23.5863 21.0758 24.4117Z" fill="#F07281"/>
<path d="M11.4333 33.4968C11.1713 32.5272 10.168 31.9514 9.19237 32.2106C8.21675 32.4698 7.63824 33.4659 7.90025 34.4354C8.16226 35.4049 9.16556 35.9807 10.1412 35.7215C11.1168 35.4623 11.6953 34.4663 11.4333 33.4968Z" fill="#EB5569"/>
<path d="M34.2598 27.9384C34.0867 27.2981 33.424 26.9177 32.7796 27.0889C32.1352 27.2601 31.7531 27.918 31.9261 28.5584C32.0992 29.1988 32.7619 29.5791 33.4063 29.4079C34.0507 29.2367 34.4328 28.5788 34.2598 27.9384Z" fill="#EB5569"/>
<path d="M30.9861 6.00291C30.7312 5.05969 29.7551 4.49948 28.8059 4.75165C27.8568 5.00381 27.2939 5.97286 27.5489 6.91608C27.8038 7.8593 28.7799 8.41951 29.729 8.16735C30.6782 7.91518 31.241 6.94613 30.9861 6.00291Z" fill="#EB5569"/>
<path d="M20.3203 22.0484C20.0826 21.169 19.1726 20.6467 18.2877 20.8818C17.4028 21.1169 16.878 22.0204 17.1157 22.8997C17.3533 23.7791 18.2634 24.3014 19.1483 24.0663C20.0332 23.8312 20.5579 22.9278 20.3203 22.0484Z" fill="#EB5569"/>
<path d="M24.443 19.5823C24.2812 18.9837 23.6618 18.6282 23.0595 18.7883C22.4572 18.9483 22.1 19.5632 22.2618 20.1618C22.4235 20.7603 23.0429 21.1158 23.6453 20.9558C24.2476 20.7958 24.6047 20.1808 24.443 19.5823Z" fill="#EB5569"/>
<path d="M20.0825 17.0965C19.9467 16.5939 19.4265 16.2954 18.9208 16.4297C18.415 16.5641 18.1151 17.0805 18.2509 17.5831C18.3867 18.0857 18.9069 18.3842 19.4126 18.2498C19.9184 18.1155 20.2183 17.5991 20.0825 17.0965Z" fill="#EB5569"/>
</svg>
